<svg width="1600" height="900" viewBox="0 0 1600 900" fill="none" xmlns="http://www.w3.org/2000/svg">
  <defs>
    <linearGradient id="sky" x1="0" y1="0" x2="0" y2="1">
      <stop offset="0%" stop-color="#0B1020"/>
      <stop offset="60%" stop-color="#131A33"/>
      <stop offset="100%" stop-color="#0A0D17"/>
    </linearGradient>
    <radialGradient id="sun" cx="0" cy="0" r="1" gradientUnits="userSpaceOnUse" gradientTransform="translate(1250 220) rotate(90) scale(260 260)">
      <stop stop-color="#7F5AF0" stop-opacity="0.85"/>
      <stop offset="1" stop-color="#7F5AF0" stop-opacity="0"/>
    </radialGradient>
    <linearGradient id="glass" x1="0" y1="0" x2="1" y2="1">
      <stop offset="0" stop-color="#40D9FF" stop-opacity="0.38"/>
      <stop offset="1" stop-color="#A455F7" stop-opacity="0.18"/>
    </linearGradient>
    <filter id="blur40" x="-20%" y="-20%" width="140%" height="140%">
      <feGaussianBlur stdDeviation="40"/>
    </filter>
  </defs>

  <rect width="1600" height="900" fill="url(#sky)"/>
  <circle cx="1250" cy="220" r="260" fill="url(#sun)"/>

  <g opacity="0.9">
    <rect x="80" y="360" width="180" height="420" rx="12" fill="#141E38"/>
    <rect x="290" y="280" width="210" height="500" rx="14" fill="#172444"/>
    <rect x="540" y="340" width="220" height="440" rx="14" fill="#18294D"/>
    <rect x="810" y="230" width="260" height="550" rx="16" fill="#1A2D53"/>
    <rect x="1110" y="320" width="220" height="460" rx="14" fill="#162544"/>
    <rect x="1360" y="380" width="170" height="400" rx="12" fill="#121D35"/>
  </g>

  <g fill="#8FE4FF" opacity="0.55">
    <rect x="118" y="398" width="20" height="16"/>
    <rect x="150" y="398" width="20" height="16"/>
    <rect x="182" y="398" width="20" height="16"/>
    <rect x="328" y="320" width="24" height="18"/>
    <rect x="364" y="320" width="24" height="18"/>
    <rect x="602" y="380" width="22" height="16"/>
    <rect x="634" y="380" width="22" height="16"/>
    <rect x="858" y="270" width="26" height="18"/>
    <rect x="894" y="270" width="26" height="18"/>
    <rect x="930" y="270" width="26" height="18"/>
    <rect x="1170" y="360" width="22" height="16"/>
    <rect x="1200" y="360" width="22" height="16"/>
    <rect x="1400" y="420" width="18" height="14"/>
    <rect x="1428" y="420" width="18" height="14"/>
  </g>

  <rect x="0" y="740" width="1600" height="160" fill="#090C14"/>
  <path d="M0 730C220 680 380 770 560 730C760 685 940 780 1180 735C1330 707 1450 730 1600 708V900H0V730Z" fill="#0C111F"/>

  <ellipse cx="430" cy="735" rx="180" ry="32" fill="#5A4ACF" opacity="0.45" filter="url(#blur40)"/>
  <ellipse cx="1050" cy="748" rx="230" ry="36" fill="#2EC5FF" opacity="0.35" filter="url(#blur40)"/>

  <rect x="390" y="640" width="420" height="140" rx="24" fill="url(#glass)" stroke="#5CE1FF" stroke-opacity="0.35"/>
  <rect x="425" y="675" width="118" height="70" rx="12" fill="#102A4F"/>
  <rect x="565" y="675" width="118" height="70" rx="12" fill="#122F58"/>
  <rect x="705" y="675" width="70" height="70" rx="12" fill="#133360"/>
</svg>
