<svg width="1200" height="800" viewBox="0 0 1200 800" fill="none" xmlns="http://www.w3.org/2000/svg">
  <defs>
    <linearGradient id="sky" x1="0" y1="0" x2="0" y2="1">
      <stop offset="0" stop-color="#1A1E2F"/>
      <stop offset="1" stop-color="#101522"/>
    </linearGradient>
    <linearGradient id="tower" x1="0" y1="0" x2="1" y2="1">
      <stop stop-color="#374D72"/>
      <stop offset="1" stop-color="#1A2742"/>
    </linearGradient>
  </defs>
  <rect width="1200" height="800" fill="url(#sky)"/>
  <rect x="120" y="160" width="220" height="460" rx="14" fill="url(#tower)"/>
  <rect x="370" y="110" width="260" height="510" rx="16" fill="url(#tower)"/>
  <rect x="670" y="190" width="190" height="430" rx="14" fill="url(#tower)"/>
  <rect x="890" y="250" width="180" height="370" rx="14" fill="url(#tower)"/>

  <g fill="#87DCFF" opacity="0.55">
    <rect x="170" y="220" width="24" height="18"/><rect x="206" y="220" width="24" height="18"/><rect x="242" y="220" width="24" height="18"/>
    <rect x="430" y="180" width="28" height="20"/><rect x="470" y="180" width="28" height="20"/><rect x="510" y="180" width="28" height="20"/>
    <rect x="720" y="250" width="22" height="16"/><rect x="750" y="250" width="22" height="16"/>
    <rect x="940" y="300" width="22" height="16"/><rect x="970" y="300" width="22" height="16"/>
  </g>

  <rect y="620" width="1200" height="180" fill="#0C111C"/>
  <rect x="300" y="500" width="620" height="140" rx="22" fill="#222E45" stroke="#B889FF" stroke-opacity="0.45"/>
  <rect x="350" y="540" width="150" height="70" rx="12" fill="#2C4165"/>
  <rect x="530" y="540" width="150" height="70" rx="12" fill="#2B3F63"/>
  <rect x="710" y="540" width="160" height="70" rx="12" fill="#283A5B"/>
</svg>
