<svg width="1200" height="800" viewBox="0 0 1200 800" fill="none" xmlns="http://www.w3.org/2000/svg">
  <defs>
    <linearGradient id="bg" x1="0" y1="0" x2="0" y2="1">
      <stop offset="0" stop-color="#172238"/>
      <stop offset="1" stop-color="#0A111D"/>
    </linearGradient>
    <linearGradient id="glass" x1="0" y1="0" x2="1" y2="1">
      <stop stop-color="#4BE8FF" stop-opacity="0.45"/>
      <stop offset="1" stop-color="#A455F7" stop-opacity="0.25"/>
    </linearGradient>
  </defs>
  <rect width="1200" height="800" fill="url(#bg)"/>
  <rect y="520" width="1200" height="280" fill="#0A1628"/>
  <path d="M0 560C150 530 230 610 380 570C540 527 640 618 820 574C1000 530 1060 585 1200 550V640H0V560Z" fill="#1E4060" opacity="0.75"/>

  <rect x="210" y="290" width="780" height="290" rx="26" fill="url(#glass)" stroke="#88F0FF" stroke-opacity="0.5"/>
  <rect x="260" y="340" width="200" height="160" rx="14" fill="#1C3658"/>
  <rect x="490" y="340" width="200" height="160" rx="14" fill="#1A3252"/>
  <rect x="720" y="340" width="220" height="210" rx="14" fill="#162C49"/>
  <rect x="720" y="300" width="220" height="20" rx="8" fill="#95E9FF" opacity="0.45"/>

  <rect x="520" y="220" width="170" height="36" rx="18" fill="#A455F7" opacity="0.45"/>
</svg>
